<?xml version="1.0" encoding="utf-8"?>
<!-- Generator: Adobe Illustrator 21.0.0, SVG Export Plug-In . SVG Version: 6.00 Build 0)  -->
<svg version="1.1" id="Logo" xmlns="http://www.w3.org/2000/svg" xmlns:xlink="http://www.w3.org/1999/xlink" x="0px" y="0px"
	 viewBox="0 0 600 200" style="enable-background:new 0 0 600 200;" xml:space="preserve">
<style type="text/css">
	.st0{display:none;}
	.st1{fill:#FFFFFF;}
	.st2{fill:none;stroke:#F5A302;stroke-width:12;}
</style>
<rect id="Background_x5F_Rect" class="st0" width="600" height="200"/>
<path id="Compass_x5F_Path" class="st1" d="M115.6,130.1l4.8-2.6l-9.9-20.5c0,0,3.1-3.3,4.1-4.7c0.3-0.5,2.8-5.1,2.8-5.1l-4.1-2.3
	c0,0-0.6,1.3-0.9,1.8c-0.8,1.4-4.2,5.3-4.5,5.2l-3.8-7.8c0,0,3.7-5.3,1.8-10.5s-7-6.6-7-6.6l0-11.2c0,0-1-1.4-1.4-1.8
	c-0.5-0.5-1.7-1-2.4-1c-0.7,0-2.2,0.6-2.8,1c-0.5,0.4-1.4,1.8-1.4,1.8l0,11.2c0,0-5.1,1.4-7,6.6s1.8,10.5,1.8,10.5l-3.8,7.8
	c-0.3,0.1-3.7-3.8-4.5-5.2c-0.3-0.6-0.9-1.8-0.9-1.8l-4.1,2.3c0,0,2.5,4.6,2.8,5.1c1,1.4,4.1,4.7,4.1,4.7l-9.9,20.5l4.8,2.6
	c0,0-1.5,3-1.8,4c-0.2,0.6-0.2,2.9-0.2,2.9l1.6-0.5l9.8-20.3l2.4-5.9c0,0,1,0.6,1.6,0.8c2.5,1,7.4,1,7.4,1s4.6,0,7-1.1
	c0.6-0.3,1.6-0.8,1.6-0.8l2.4,5.9l9.8,20.3l1.6,0.5c0,0,0-2.3-0.2-2.9C117.1,133.1,115.6,130.1,115.6,130.1z M99.6,106.5
	c-1.2,0.3-2.8,0.5-2.8,0.5l0-2.2c0,0,0.1-1.5-0.4-2.4c-0.4-0.7-1.3-0.7-1.3-0.7s-0.8,0.1-1.3,0.8c-0.5,0.9-0.4,2.4-0.4,2.4l0,2.2
	c0,0-1.6-0.2-2.8-0.5c-0.9-0.2-2.1-0.7-2.1-0.7l1.9-3.9l1.5-3.1v-6c0,0-1.3-0.8-2.3-2.6c-0.5-1.1-0.9-2.2-0.8-3.4
	c0.5-5.2,6.2-5.7,6.2-5.7s5.7,0.5,6.1,5.7c0.1,1.2-0.2,2.4-0.8,3.4c-0.9,1.8-2.3,2.6-2.3,2.6v6l1.5,3.1l1.9,3.9
	C101.7,105.8,100.5,106.3,99.6,106.5z"/>
<path id="Border_x5F_Path" class="st2" d="M97.8,167.8l54.9-31.7c1.6-0.9,2.5-2.6,2.5-4.4l-0.3-63.6c0-1.8-1-3.4-2.5-4.3L97.6,32.2
	c-1.5-0.9-3.4-0.9-5,0L37.5,63.8C36,64.7,35,66.4,35,68.2l-0.1,63c0,1.8,0.9,3.4,2.5,4.3l55.4,32.3
	C94.3,168.7,96.2,168.7,97.8,167.8z"/>
<g>
	<path class="st1" d="M203.3,80.6l4.8,13.7l2.1-7.4V95l-5.6,18.9h-1.3l-9.5-28.1c-0.3-0.9-0.7-1.6-1-1.9c-0.2-0.2-0.6-0.4-1.1-0.5
		c-1.1-0.2-1.6-0.7-1.6-1.5c0-0.4,0.2-0.8,0.5-1c0.3-0.2,0.7-0.4,1.3-0.4H203.3z M193.8,91.8l2.6,7.4v7.3c0,0.7,0,1.3,0.1,1.6
		c0.1,0.3,0.2,0.7,0.4,1.1c0.3,0.7,0.8,1.3,1.4,1.6l0.9,0.6c0.6,0.4,0.9,0.8,0.9,1.2c0,0.8-0.6,1.2-1.8,1.2h-6.1
		c-1.2,0-1.8-0.4-1.8-1.2c0-0.3,0.1-0.5,0.2-0.6c0.1-0.1,0.3-0.3,0.6-0.5c1.8-1,2.7-2.7,2.7-5.1V91.8z M212.3,80.6h10.8h0.7
		c1.2,0,1.8,0.4,1.8,1.3c0,0.7-0.3,1.1-1,1.3c-0.5,0.2-0.9,0.3-0.9,0.3c-0.1,0-0.2,0.1-0.3,0.3c-0.2,0.3-0.3,0.7-0.3,1.2v24.4
		c0,0.6,0.1,1,0.3,1.2c0.1,0.1,0.2,0.2,0.3,0.3c0.1,0,0.4,0.2,0.9,0.3c0.7,0.2,1,0.7,1,1.3c0,0.8-0.6,1.3-1.8,1.3h-0.7h-10.9h-0.8
		c-0.7,0-1.3-0.1-1.6-0.3c-0.4-0.2-0.5-0.5-0.5-1c0-0.7,0.4-1.2,1.2-1.3c0.6-0.2,1-0.3,1.1-0.3c0.1,0,0.2-0.1,0.3-0.3
		c0.2-0.3,0.4-0.8,0.4-1.4V80.6z"/>
	<path class="st1" d="M243,80.6v33.3h-10.9h-0.6c-0.6,0-1-0.1-1.4-0.3c-0.3-0.2-0.5-0.5-0.5-0.9c0-0.7,0.3-1.1,1-1.3
		c0.5-0.2,0.9-0.3,0.9-0.3c0.1,0,0.2-0.1,0.3-0.3c0.2-0.3,0.3-0.7,0.3-1.2V85c0-0.6-0.1-1-0.3-1.2c-0.1-0.1-0.2-0.2-0.3-0.3
		c-0.1,0-0.4-0.1-0.9-0.3c-0.7-0.2-1-0.7-1-1.3c0-0.4,0.2-0.7,0.5-0.9c0.3-0.2,0.8-0.3,1.4-0.3h0.6H243z M245,98.4v-2.8
		c0.9-0.5,1.6-1,2.1-1.5c0.5-0.5,0.8-1.3,1-2.1c0.1-0.6,0.3-1,0.5-1.3c0.2-0.2,0.5-0.4,0.9-0.4c0.5,0,0.9,0.2,1.1,0.6
		c0.1,0.2,0.2,0.7,0.2,1.4v9.3c0,0.8-0.1,1.3-0.3,1.6s-0.5,0.4-0.9,0.4c-0.4,0-0.7-0.1-0.9-0.3c-0.2-0.2-0.4-0.6-0.5-1.1
		c-0.3-1.1-0.7-2-1.2-2.6C246.5,99,245.8,98.6,245,98.4z M245.1,80.6h9.8v8.6c0,0.5-0.1,0.9-0.3,1.1c-0.2,0.2-0.5,0.3-0.9,0.3
		c-0.4,0-0.6-0.1-0.8-0.2c-0.2-0.1-0.3-0.4-0.5-0.9c-0.6-1.9-1.5-3.3-2.7-4.3c-1.2-1-2.7-1.6-4.7-1.8V80.6z M245.2,113.9v-2.6
		c1.1-0.2,1.9-0.4,2.6-0.7c0.7-0.3,1.4-0.7,2.1-1.3c0.7-0.6,1.3-1.2,1.7-1.9c0.4-0.6,0.8-1.5,1.2-2.6c0.2-0.5,0.4-0.9,0.6-1.1
		c0.2-0.2,0.5-0.3,0.8-0.3c0.5,0,0.8,0.1,1,0.4c0.2,0.3,0.3,0.7,0.3,1.4v8.6H245.2z"/>
	<path class="st1" d="M267.1,86.8l1.2,5.1l-4.3,15.8c-0.1,0.5-0.2,0.9-0.2,1.3c0,1,0.5,1.8,1.4,2.2l0.9,0.4c0.5,0.2,0.8,0.7,0.8,1.2
		c0,0.8-0.6,1.2-1.8,1.2h-6.2c-0.6,0-1.1-0.1-1.4-0.4c-0.4-0.3-0.5-0.6-0.5-1c0-0.5,0.4-0.9,1.1-1.2c0.7-0.3,1.2-0.6,1.5-0.8
		c0.3-0.2,0.6-0.6,0.9-1c0.5-0.7,0.8-1.6,1.1-2.7L267.1,86.8z M268.8,80.6h9.8l6.8,28.7c0.1,0.5,0.3,1,0.4,1.3
		c0.1,0.3,0.5,0.6,1,0.8c0.4,0.2,0.7,0.4,0.9,0.5c0.2,0.2,0.2,0.4,0.2,0.7c0,0.8-0.6,1.3-1.9,1.3h-12.2c-0.5,0-0.9-0.1-1.2-0.4
		c-0.3-0.2-0.4-0.5-0.4-0.9c0-0.3,0.1-0.6,0.2-0.7c0.1-0.2,0.4-0.4,0.9-0.6c0.3-0.2,0.6-0.3,0.7-0.5c0.1-0.2,0.2-0.4,0.2-0.7
		c0-0.3,0-0.5-0.1-0.7l-0.8-3.5h-6.8l0.7-2.9h5.5L268.2,83L268.8,80.6z"/>
	<path class="st1" d="M301.2,79.9v2.8c-1,0.3-1.8,0.7-2.3,1.3c-0.5,0.6-0.8,1.3-0.8,2.1c0,0.8,0.2,1.5,0.7,2.1
		c0.4,0.6,1.2,1.2,2.1,1.7c0.7,0.4,2.2,1.1,4.6,2.1c1.5,0.6,2.6,1.2,3.4,1.7c0.8,0.5,1.6,1.2,2.3,1.9c1.9,2,2.9,4.4,2.9,7.2
		c0,2.1-0.5,4-1.6,5.8c-1,1.7-2.5,3.1-4.3,4.1c-1,0.5-2,0.9-3.2,1.2c-1.2,0.3-2.3,0.5-3.3,0.5v-2.8c1.4-0.3,2.4-0.8,3.1-1.4
		c0.6-0.6,0.9-1.4,0.9-2.5c0-1.1-0.5-2.1-1.5-2.9c-0.7-0.5-1.9-1.2-3.7-2c-2-0.9-3.4-1.5-4.1-1.9c-0.7-0.4-1.5-0.8-2.1-1.3
		c-3.1-2.2-4.6-5.1-4.6-8.7c0-1.9,0.4-3.6,1.1-5.1c0.8-1.6,1.8-2.8,3.2-3.8C296,80.8,298.4,80.1,301.2,79.9z M299.9,111.8v2.8
		c-1.3,0-2.8-0.4-4.4-1.1c-0.6-0.3-1-0.5-1.2-0.5c-0.2-0.1-0.4-0.1-0.7-0.1c-0.3,0-0.6,0.1-0.7,0.2c-0.2,0.1-0.4,0.4-0.8,0.8
		c-0.3,0.4-0.6,0.5-1,0.5c-0.9,0-1.4-0.7-1.4-2.1v-8.9c0-0.5,0.1-0.8,0.4-1.2c0.3-0.3,0.6-0.5,1-0.5c0.4,0,0.6,0.1,0.8,0.3
		c0.2,0.2,0.4,0.6,0.5,1.2c0.4,1.4,0.9,2.7,1.6,3.9s1.5,2.3,2.5,3.1C297.6,111,298.7,111.5,299.9,111.8z M303.1,82.7v-2.7
		c1,0.1,1.8,0.2,2.5,0.4c0.7,0.2,1.7,0.6,3.1,1.1c0.3,0.1,0.6,0.2,0.8,0.2c0.3,0,0.5-0.1,0.7-0.3l0.5-0.7c0.3-0.4,0.6-0.5,1-0.5
		c0.4,0,0.8,0.2,1,0.5c0.2,0.3,0.3,0.8,0.3,1.5v8.1c0,0.5-0.1,0.9-0.4,1.2c-0.3,0.3-0.6,0.5-1,0.5c-0.3,0-0.6-0.1-0.9-0.3
		c-0.1-0.1-0.3-0.3-0.4-0.5c-0.1-0.2-0.2-0.5-0.3-0.9c-0.2-0.8-0.5-1.6-0.9-2.5c-0.4-0.8-1-1.6-1.5-2.3
		C306.4,84,304.9,83.2,303.1,82.7z"/>
	<path class="st1" d="M320,104.2V85c0-0.6-0.1-1-0.3-1.2c-0.1-0.1-0.2-0.2-0.3-0.3c-0.1,0-0.4-0.1-0.9-0.3c-0.7-0.2-1-0.6-1-1.3
		c0-0.4,0.2-0.7,0.5-1c0.3-0.2,0.8-0.3,1.4-0.3h0.6h10.9h0.6l0.9,0.1c0.3,0.1,0.5,0.2,0.7,0.4c0.2,0.2,0.3,0.5,0.3,0.8
		c0,0.7-0.3,1.1-1,1.3c-0.5,0.2-0.9,0.3-0.9,0.3c-0.1,0-0.2,0.1-0.3,0.3c-0.2,0.3-0.3,0.7-0.3,1.2v20.5c0,1.4,0,2.3,0.1,2.9
		c0.1,0.5,0.2,1,0.5,1.5c0.2,0.4,0.4,0.7,0.7,0.9c0.3,0.2,0.8,0.4,1.5,0.6v3.2h-0.5c-2.1,0-3.9-0.2-5.3-0.6c-1.6-0.4-3.1-1.1-4.3-2
		c-1.2-0.9-2.1-1.8-2.6-2.9C320.3,108,320,106.4,320,104.2z M335.9,114.6v-3.2c1.6-0.2,3-0.9,4.1-2c1.2-1.3,1.9-3.1,1.9-5.5V87.9
		c0-2.2-0.9-3.8-2.6-4.7c-0.5-0.3-0.8-0.5-1-0.7c-0.2-0.2-0.2-0.5-0.2-0.8c0-0.4,0.2-0.7,0.5-0.9c0.3-0.2,0.8-0.3,1.5-0.3h6
		c0.5,0,0.8,0,1,0c0.2,0,0.3,0.1,0.5,0.2c0.4,0.2,0.6,0.6,0.6,1c0,0.4-0.1,0.7-0.4,0.9c-0.1,0.1-0.4,0.3-1,0.7
		c-0.7,0.4-1.3,1-1.7,1.8c-0.4,0.8-0.6,1.7-0.6,2.7v15.9c0,2.7-0.6,5-1.8,6.7c-0.9,1.3-2.1,2.3-3.8,3.1
		C338,114.1,337,114.4,335.9,114.6z"/>
	<path class="st1" d="M365.1,80.6v28.7c0,0.6,0.1,1.1,0.4,1.4c0.1,0.2,0.3,0.3,0.4,0.3c0.1,0,0.5,0.1,1.1,0.3
		c0.8,0.2,1.2,0.6,1.2,1.3c0,0.4-0.2,0.8-0.6,1c-0.3,0.2-0.8,0.3-1.5,0.3h-0.8h-10.9h-0.6c-0.6,0-1-0.1-1.4-0.3
		c-0.3-0.2-0.5-0.5-0.5-0.9c0-0.7,0.3-1.1,1-1.3c0.5-0.2,0.9-0.3,0.9-0.3c0.1,0,0.2-0.1,0.3-0.3c0.2-0.3,0.3-0.7,0.3-1.2V85
		c0-0.6-0.1-1-0.3-1.2c-0.1-0.1-0.2-0.2-0.3-0.3c-0.1,0-0.4-0.1-0.9-0.3c-0.7-0.2-1-0.7-1-1.3c0-0.4,0.2-0.7,0.5-0.9
		c0.3-0.2,0.8-0.3,1.4-0.3h0.6H365.1z M372.6,97.6c1.5,0.2,2.6,0.5,3.5,0.8c0.8,0.3,1.5,0.7,2.2,1.1c0.7,0.5,1.2,1.1,1.6,1.8
		c0.4,0.7,0.5,1.4,0.5,2.2v5.1c0,0.5,0.2,0.8,0.5,0.8c0.1,0,0.2,0,0.3-0.1c0.1-0.1,0.2-0.2,0.4-0.4c0.4-0.6,0.8-0.8,1.2-0.8
		c0.3,0,0.6,0.1,0.8,0.4c0.3,0.3,0.4,0.6,0.4,0.9c0,0.5-0.2,1.1-0.7,1.8c-0.5,0.7-1.1,1.4-1.8,1.9c-0.7,0.5-1.4,0.9-2.2,1.2
		c-0.8,0.2-1.7,0.4-2.8,0.4c-2.1,0-3.8-0.6-5-1.8c-1.2-1.2-1.8-2.9-1.8-5.1v-4.1c0-0.9,0-1.4,0-1.6c-0.1-0.7-0.3-1.2-0.7-1.7
		c-0.5-0.6-1.1-0.9-2-1v-2.6c0.9-0.1,1.5-0.4,1.9-0.7c0.3-0.3,0.5-0.6,0.7-1c0.1-0.4,0.2-0.9,0.2-1.7v-6.5c0-1-0.2-1.8-0.6-2.3
		c-0.4-0.5-1.1-0.9-2.2-1.2v-2.7h0.6c1.8,0,3.3,0.1,4.6,0.2c1.9,0.2,3.6,0.8,5.1,1.9c2.1,1.5,3.2,3.7,3.2,6.5c0,2.3-0.7,4.2-2.1,5.6
		c-0.6,0.6-1.3,1.1-2.1,1.5S374.2,97.1,372.6,97.6z"/>
	<path class="st1" d="M400.1,80.6v33.3h-10.9h-0.6c-0.6,0-1-0.1-1.4-0.3c-0.3-0.2-0.5-0.5-0.5-0.9c0-0.7,0.3-1.1,1-1.3
		c0.5-0.2,0.9-0.3,0.9-0.3c0.1,0,0.2-0.1,0.3-0.3c0.2-0.3,0.3-0.7,0.3-1.2V85c0-0.6-0.1-1-0.3-1.2c-0.1-0.1-0.2-0.2-0.3-0.3
		c-0.1,0-0.4-0.1-0.9-0.3c-0.7-0.2-1-0.7-1-1.3c0-0.4,0.2-0.7,0.5-0.9c0.3-0.2,0.8-0.3,1.4-0.3h0.6H400.1z M402.1,98.4v-2.8
		c0.9-0.5,1.6-1,2.1-1.5c0.5-0.5,0.8-1.3,1-2.1c0.1-0.6,0.3-1,0.5-1.3c0.2-0.2,0.5-0.4,0.9-0.4c0.5,0,0.9,0.2,1.1,0.6
		c0.1,0.2,0.2,0.7,0.2,1.4v9.3c0,0.8-0.1,1.3-0.3,1.6s-0.5,0.4-0.9,0.4c-0.4,0-0.7-0.1-0.9-0.3c-0.2-0.2-0.4-0.6-0.5-1.1
		c-0.3-1.1-0.7-2-1.2-2.6C403.6,99,402.9,98.6,402.1,98.4z M402.2,80.6h9.8v8.6c0,0.5-0.1,0.9-0.3,1.1c-0.2,0.2-0.5,0.3-0.9,0.3
		c-0.4,0-0.6-0.1-0.8-0.2c-0.2-0.1-0.3-0.4-0.5-0.9c-0.6-1.9-1.5-3.3-2.7-4.3c-1.2-1-2.7-1.6-4.7-1.8V80.6z M402.3,113.9v-2.6
		c1.1-0.2,1.9-0.4,2.6-0.7c0.7-0.3,1.4-0.7,2.1-1.3c0.7-0.6,1.3-1.2,1.7-1.9c0.4-0.6,0.8-1.5,1.2-2.6c0.2-0.5,0.4-0.9,0.6-1.1
		c0.2-0.2,0.5-0.3,0.8-0.3c0.5,0,0.8,0.1,1,0.4c0.2,0.3,0.3,0.7,0.3,1.4v8.6H402.3z"/>
	<path class="st1" d="M428.9,82.6c-0.8,0.3-1.4,0.7-1.8,1.2c-0.3,0.5-0.5,1.2-0.5,2.2v21.8c0,1.4,0.2,2.4,0.6,3
		c0.3,0.5,0.9,0.8,1.7,1v2.7c-3.6-0.3-6.6-1.7-9.1-4.1c-3.2-3.2-4.8-7.6-4.8-13.2c0-2.8,0.4-5.4,1.3-7.7c0.8-2.3,2.1-4.2,3.7-5.8
		c1.3-1.2,2.6-2.1,4.1-2.8c1.4-0.6,3.1-1,4.8-1.1V82.6z M430.9,82.6v-2.6c1.8,0.1,3.4,0.4,4.8,1.1c1.5,0.6,2.8,1.6,4.1,2.8
		c3.3,3.2,5,7.7,5,13.5c0,5.6-1.6,10.1-4.8,13.2c-2.4,2.4-5.5,3.8-9.1,4.1v-2.7c0.4-0.1,0.8-0.2,1-0.4c0.2-0.2,0.5-0.4,0.6-0.7
		c0.4-0.7,0.7-1.7,0.7-3V86c0-0.9-0.1-1.5-0.4-2.1c-0.2-0.3-0.4-0.6-0.7-0.8S431.4,82.7,430.9,82.6z"/>
	<path class="st1" d="M451.4,89.2l2.6,4.3v13.1c0,1.1,0.2,2.1,0.6,2.8c0.4,0.7,1,1.3,1.8,1.8l0.7,0.4c0.4,0.2,0.6,0.6,0.6,1.1
		c0,0.4-0.2,0.7-0.5,0.9c-0.3,0.2-0.8,0.3-1.6,0.3H450c-1.5,0-2.2-0.4-2.2-1.3c0-0.3,0.1-0.5,0.2-0.7c0.2-0.2,0.5-0.4,1-0.7
		c1.6-0.9,2.3-2.4,2.3-4.7V89.2z M461.6,80.6l13,22.6v10.8h-6.7l-16.6-28.6c-0.4-0.6-0.7-1-0.9-1.3c-0.2-0.2-0.5-0.4-0.9-0.5
		l-0.9-0.3c-0.2-0.1-0.4-0.2-0.6-0.4c-0.1-0.2-0.2-0.4-0.2-0.7c0-0.3,0.1-0.5,0.2-0.8c0.1-0.2,0.3-0.4,0.6-0.5
		c0.3-0.1,1-0.2,2.2-0.2H461.6z M474.6,99.2l-2.6-4.4v-6.8c0-1.4-0.2-2.4-0.6-3.1c-0.4-0.7-1.1-1.3-2.1-1.9
		c-0.3-0.2-0.6-0.3-0.7-0.5c-0.1-0.2-0.2-0.4-0.2-0.7c0-0.4,0.1-0.8,0.4-1c0.3-0.2,0.7-0.3,1.4-0.3h6.1c0.8,0,1.4,0.1,1.6,0.4
		c0.3,0.3,0.4,0.6,0.4,0.9c0,0.3-0.1,0.6-0.2,0.8c-0.2,0.2-0.5,0.4-1.1,0.7c-0.9,0.4-1.5,1.1-2,2c-0.3,0.7-0.5,1.6-0.5,2.7V99.2z"/>
	<path class="st1" d="M489.5,86.8l1.2,5.1l-4.3,15.8c-0.1,0.5-0.2,0.9-0.2,1.3c0,1,0.5,1.8,1.4,2.2l0.9,0.4c0.5,0.2,0.8,0.7,0.8,1.2
		c0,0.8-0.6,1.2-1.8,1.2h-6.2c-0.6,0-1.1-0.1-1.4-0.4c-0.4-0.3-0.5-0.6-0.5-1c0-0.5,0.4-0.9,1.1-1.2c0.7-0.3,1.2-0.6,1.5-0.8
		c0.3-0.2,0.6-0.6,0.9-1c0.5-0.7,0.8-1.6,1.1-2.7L489.5,86.8z M491.2,80.6h9.8l6.8,28.7c0.1,0.5,0.3,1,0.4,1.3
		c0.1,0.3,0.5,0.6,1,0.8c0.4,0.2,0.7,0.4,0.9,0.5c0.2,0.2,0.2,0.4,0.2,0.7c0,0.8-0.6,1.3-1.9,1.3h-12.2c-0.5,0-0.9-0.1-1.2-0.4
		c-0.3-0.2-0.4-0.5-0.4-0.9c0-0.3,0.1-0.6,0.2-0.7c0.1-0.2,0.4-0.4,0.9-0.6c0.3-0.2,0.6-0.3,0.7-0.5c0.1-0.2,0.2-0.4,0.2-0.7
		c0-0.3,0-0.5-0.1-0.7l-0.8-3.5h-6.8l0.7-2.9h5.5L490.5,83L491.2,80.6z"/>
	<path class="st1" d="M525.7,113.9h-10.9h-0.6c-0.6,0-1-0.1-1.4-0.3c-0.3-0.2-0.5-0.5-0.5-0.9c0-0.7,0.3-1.1,1-1.3
		c0.5-0.2,0.8-0.3,0.9-0.3c0.1,0,0.2-0.1,0.3-0.3c0.2-0.3,0.3-0.7,0.3-1.2V85c0-0.6-0.1-1-0.3-1.2c-0.1-0.1-0.2-0.2-0.3-0.3
		c-0.1,0-0.4-0.1-0.9-0.3c-0.7-0.2-1-0.7-1-1.3c0-0.4,0.2-0.7,0.5-0.9c0.3-0.2,0.8-0.3,1.4-0.3h0.6h10.9h0.6c0.6,0,1,0.1,1.4,0.3
		c0.3,0.2,0.5,0.5,0.5,0.9c0,0.7-0.3,1.1-1,1.3c-0.5,0.2-0.9,0.3-0.9,0.3c-0.1,0-0.2,0.1-0.3,0.3c-0.2,0.3-0.3,0.7-0.3,1.2v24.4
		c0,0.6,0.1,1,0.3,1.2c0.1,0.1,0.2,0.2,0.3,0.3c0.1,0,0.4,0.2,0.9,0.3c0.7,0.2,1,0.7,1,1.3c0,0.4-0.2,0.7-0.5,0.9
		c-0.3,0.2-0.8,0.3-1.4,0.3H525.7z"/>
	<path class="st1" d="M545.5,80.6v28.7c0,0.6,0.1,1.1,0.4,1.4c0.1,0.2,0.3,0.3,0.4,0.3c0.1,0,0.5,0.1,1.1,0.3
		c0.8,0.2,1.2,0.6,1.2,1.3c0,0.4-0.2,0.8-0.6,1c-0.3,0.2-0.8,0.3-1.5,0.3h-0.8h-10.9H534c-0.6,0-1-0.1-1.4-0.3
		c-0.3-0.2-0.5-0.5-0.5-0.9c0-0.7,0.3-1.1,1-1.3c0.5-0.2,0.8-0.3,0.9-0.3c0.1,0,0.2-0.1,0.3-0.3c0.2-0.3,0.3-0.7,0.3-1.2V85
		c0-0.6-0.1-1-0.3-1.2c-0.1-0.1-0.2-0.2-0.3-0.3c-0.1,0-0.4-0.1-0.9-0.3c-0.7-0.2-1-0.7-1-1.3c0-0.4,0.2-0.7,0.5-0.9
		c0.3-0.2,0.8-0.3,1.4-0.3h0.6H545.5z M553,97.6c1.5,0.2,2.6,0.5,3.5,0.8c0.8,0.3,1.5,0.7,2.2,1.1c0.7,0.5,1.2,1.1,1.6,1.8
		c0.4,0.7,0.5,1.4,0.5,2.2v5.1c0,0.5,0.2,0.8,0.5,0.8c0.1,0,0.2,0,0.3-0.1c0.1-0.1,0.2-0.2,0.4-0.4c0.4-0.6,0.8-0.8,1.2-0.8
		c0.3,0,0.6,0.1,0.8,0.4c0.3,0.3,0.4,0.6,0.4,0.9c0,0.5-0.2,1.1-0.7,1.8c-0.5,0.7-1.1,1.4-1.8,1.9c-0.7,0.5-1.4,0.9-2.2,1.2
		c-0.8,0.2-1.7,0.4-2.8,0.4c-2.1,0-3.8-0.6-5-1.8c-1.2-1.2-1.8-2.9-1.8-5.1v-4.1c0-0.9,0-1.4,0-1.6c-0.1-0.7-0.3-1.2-0.7-1.7
		c-0.5-0.6-1.1-0.9-2-1v-2.6c0.9-0.1,1.5-0.4,1.9-0.7c0.3-0.3,0.5-0.6,0.7-1c0.1-0.4,0.2-0.9,0.2-1.7v-6.5c0-1-0.2-1.8-0.6-2.3
		c-0.4-0.5-1.1-0.9-2.2-1.2v-2.7h0.6c1.8,0,3.3,0.1,4.6,0.2c1.9,0.2,3.6,0.8,5.1,1.9c2.1,1.5,3.2,3.7,3.2,6.5c0,2.3-0.7,4.2-2.1,5.6
		c-0.6,0.6-1.3,1.1-2.1,1.5S554.6,97.1,553,97.6z"/>
</g>
</svg>
