<?xml version="1.0" encoding="utf-8"?>
<!-- Generator: Adobe Illustrator 21.0.0, SVG Export Plug-In . SVG Version: 6.00 Build 0)  -->
<svg version="1.1" id="Logo" xmlns="http://www.w3.org/2000/svg" xmlns:xlink="http://www.w3.org/1999/xlink" x="0px" y="0px"
	 viewBox="0 0 400 400" style="enable-background:new 0 0 400 400;" xml:space="preserve">
<style type="text/css">
	.st0{display:none;}
	.st1{fill:#FFFFFF;}
	.st2{fill:none;stroke:#F5A302;stroke-width:12;}
</style>
<rect id="Background_x5F_Rect" class="st0" width="400" height="400"/>
<path id="Compass_x5F_Path" class="st1" d="M220.6,183.3l4.8-2.6l-9.9-20.5c0,0,3.1-3.3,4.1-4.7c0.3-0.5,2.8-5.1,2.8-5.1l-4.1-2.3
	c0,0-0.6,1.3-0.9,1.8c-0.8,1.4-4.2,5.3-4.5,5.2l-3.8-7.8c0,0,3.7-5.3,1.8-10.5s-7-6.6-7-6.6l0-11.2c0,0-1-1.4-1.4-1.8
	c-0.5-0.5-1.7-1-2.4-1c-0.7,0-2.2,0.6-2.8,1c-0.5,0.4-1.4,1.8-1.4,1.8l0,11.2c0,0-5.1,1.4-7,6.6s1.8,10.5,1.8,10.5l-3.8,7.8
	c-0.3,0.1-3.7-3.8-4.5-5.2c-0.3-0.6-0.9-1.8-0.9-1.8l-4.1,2.3c0,0,2.5,4.6,2.8,5.1c1,1.4,4.1,4.7,4.1,4.7l-9.9,20.5l4.8,2.6
	c0,0-1.5,3-1.8,4c-0.2,0.6-0.2,2.9-0.2,2.9l1.6-0.5l9.8-20.3l2.4-5.9c0,0,1,0.6,1.6,0.8c2.5,1,7.4,1,7.4,1s4.6,0,7-1.1
	c0.6-0.3,1.6-0.8,1.6-0.8l2.4,5.9l9.8,20.3l1.6,0.5c0,0,0-2.3-0.2-2.9C222.1,186.3,220.6,183.3,220.6,183.3z M204.6,159.7
	c-1.2,0.3-2.8,0.5-2.8,0.5l0-2.2c0,0,0.1-1.5-0.4-2.4c-0.4-0.7-1.3-0.7-1.3-0.7s-0.8,0.1-1.3,0.8c-0.5,0.9-0.4,2.4-0.4,2.4l0,2.2
	c0,0-1.6-0.2-2.8-0.5c-0.9-0.2-2.1-0.7-2.1-0.7l1.9-3.9l1.5-3.1v-6c0,0-1.3-0.8-2.3-2.6c-0.5-1.1-0.9-2.2-0.8-3.4
	c0.5-5.2,6.2-5.7,6.2-5.7s5.7,0.5,6.1,5.7c0.1,1.2-0.2,2.4-0.8,3.4c-0.9,1.8-2.3,2.6-2.3,2.6v6l1.5,3.1l1.9,3.9
	C206.7,159,205.5,159.5,204.6,159.7z"/>
<path id="Border_x5F_Path" class="st2" d="M202.7,224.7l54.9-31.7c1.6-0.9,2.5-2.6,2.5-4.4l-0.3-63.6c0-1.8-1-3.4-2.5-4.3
	l-54.7-31.6c-1.5-0.9-3.4-0.9-5,0l-55.1,31.6c-1.6,0.9-2.5,2.5-2.5,4.3l-0.1,63c0,1.8,0.9,3.4,2.5,4.3l55.4,32.3
	C199.3,225.6,201.2,225.6,202.7,224.7z"/>
<g>
	<path class="st1" d="M26.5,264.4l4.8,13.7l2.1-7.4v8.1l-5.6,18.9h-1.3l-9.5-28.1c-0.3-0.9-0.7-1.6-1-1.9c-0.2-0.2-0.6-0.4-1.1-0.5
		c-1.1-0.2-1.6-0.7-1.6-1.5c0-0.4,0.2-0.8,0.5-1c0.3-0.2,0.7-0.4,1.3-0.4H26.5z M17.1,275.6l2.6,7.4v7.3c0,0.7,0,1.3,0.1,1.6
		c0.1,0.3,0.2,0.7,0.4,1.1c0.3,0.7,0.8,1.3,1.4,1.6l0.9,0.6c0.6,0.4,0.9,0.8,0.9,1.2c0,0.8-0.6,1.2-1.8,1.2h-6.1
		c-1.2,0-1.8-0.4-1.8-1.2c0-0.3,0.1-0.5,0.2-0.6c0.1-0.1,0.3-0.3,0.6-0.5c1.8-1,2.7-2.7,2.7-5.1V275.6z M35.5,264.4h10.8H47
		c1.2,0,1.8,0.4,1.8,1.3c0,0.7-0.3,1.1-1,1.3c-0.5,0.2-0.9,0.3-0.9,0.3c-0.1,0-0.2,0.1-0.3,0.3c-0.2,0.3-0.3,0.7-0.3,1.2v24.4
		c0,0.6,0.1,1,0.3,1.2c0.1,0.1,0.2,0.2,0.3,0.3c0.1,0,0.4,0.2,0.9,0.3c0.7,0.2,1,0.7,1,1.3c0,0.8-0.6,1.3-1.8,1.3h-0.7H35.5h-0.8
		c-0.7,0-1.3-0.1-1.6-0.3c-0.4-0.2-0.5-0.5-0.5-1c0-0.7,0.4-1.2,1.2-1.3c0.6-0.2,1-0.3,1.1-0.3c0.1,0,0.2-0.1,0.3-0.3
		c0.2-0.3,0.4-0.8,0.4-1.4V264.4z"/>
	<path class="st1" d="M66.2,264.4v33.3H55.3h-0.6c-0.6,0-1-0.1-1.4-0.3c-0.3-0.2-0.5-0.5-0.5-0.9c0-0.7,0.3-1.1,1-1.3
		c0.5-0.2,0.9-0.3,0.9-0.3c0.1,0,0.2-0.1,0.3-0.3c0.2-0.3,0.3-0.7,0.3-1.2v-24.4c0-0.6-0.1-1-0.3-1.2c-0.1-0.1-0.2-0.2-0.3-0.3
		c-0.1,0-0.4-0.1-0.9-0.3c-0.7-0.2-1-0.7-1-1.3c0-0.4,0.2-0.7,0.5-0.9c0.3-0.2,0.8-0.3,1.4-0.3h0.6H66.2z M68.2,282.2v-2.8
		c0.9-0.5,1.6-1,2.1-1.5c0.5-0.5,0.8-1.3,1-2.1c0.1-0.6,0.3-1,0.5-1.3c0.2-0.2,0.5-0.4,0.9-0.4c0.5,0,0.9,0.2,1.1,0.6
		c0.1,0.2,0.2,0.7,0.2,1.4v9.3c0,0.8-0.1,1.3-0.3,1.6s-0.5,0.4-0.9,0.4c-0.4,0-0.7-0.1-0.9-0.3c-0.2-0.2-0.4-0.6-0.5-1.1
		c-0.3-1.1-0.7-2-1.2-2.6C69.7,282.8,69,282.4,68.2,282.2z M68.3,264.4h9.8v8.6c0,0.5-0.1,0.9-0.3,1.1c-0.2,0.2-0.5,0.3-0.9,0.3
		c-0.4,0-0.6-0.1-0.8-0.2c-0.2-0.1-0.3-0.4-0.5-0.9c-0.6-1.9-1.5-3.3-2.7-4.3c-1.2-1-2.7-1.6-4.7-1.8V264.4z M68.4,297.7v-2.6
		c1.1-0.2,1.9-0.4,2.6-0.7c0.7-0.3,1.4-0.7,2.1-1.3c0.7-0.6,1.3-1.2,1.7-1.9c0.4-0.6,0.8-1.5,1.2-2.6c0.2-0.5,0.4-0.9,0.6-1.1
		c0.2-0.2,0.5-0.3,0.8-0.3c0.5,0,0.8,0.1,1,0.4c0.2,0.3,0.3,0.7,0.3,1.4v8.6H68.4z"/>
	<path class="st1" d="M90.3,270.6l1.2,5.1l-4.3,15.8c-0.1,0.5-0.2,0.9-0.2,1.3c0,1,0.5,1.8,1.4,2.2l0.9,0.4c0.5,0.2,0.8,0.7,0.8,1.2
		c0,0.8-0.6,1.2-1.8,1.2h-6.2c-0.6,0-1.1-0.1-1.4-0.4c-0.4-0.3-0.5-0.6-0.5-1c0-0.5,0.4-0.9,1.1-1.2c0.7-0.3,1.2-0.6,1.5-0.8
		c0.3-0.2,0.6-0.6,0.9-1c0.5-0.7,0.8-1.6,1.1-2.7L90.3,270.6z M92,264.4h9.8l6.8,28.7c0.1,0.5,0.3,1,0.4,1.3c0.1,0.3,0.5,0.6,1,0.8
		c0.4,0.2,0.7,0.4,0.9,0.5c0.2,0.2,0.2,0.4,0.2,0.7c0,0.8-0.6,1.3-1.9,1.3H97.1c-0.5,0-0.9-0.1-1.2-0.4c-0.3-0.2-0.4-0.5-0.4-0.9
		c0-0.3,0.1-0.6,0.2-0.7c0.1-0.2,0.4-0.4,0.9-0.6c0.3-0.2,0.6-0.3,0.7-0.5c0.1-0.2,0.2-0.4,0.2-0.7c0-0.3,0-0.5-0.1-0.7l-0.8-3.5
		h-6.8l0.7-2.9h5.5l-4.5-19.8L92,264.4z"/>
	<path class="st1" d="M124.4,263.7v2.8c-1,0.3-1.8,0.7-2.3,1.3c-0.5,0.6-0.8,1.3-0.8,2.1c0,0.8,0.2,1.5,0.7,2.1
		c0.4,0.6,1.2,1.2,2.1,1.7c0.7,0.4,2.2,1.1,4.6,2.1c1.5,0.6,2.6,1.2,3.4,1.7c0.8,0.5,1.6,1.2,2.3,1.9c1.9,2,2.9,4.4,2.9,7.2
		c0,2.1-0.5,4-1.6,5.8c-1,1.7-2.5,3.1-4.3,4.1c-1,0.5-2,0.9-3.2,1.2c-1.2,0.3-2.3,0.5-3.3,0.5v-2.8c1.4-0.3,2.4-0.8,3.1-1.4
		c0.6-0.6,0.9-1.4,0.9-2.5c0-1.1-0.5-2.1-1.5-2.9c-0.7-0.5-1.9-1.2-3.7-2c-2-0.9-3.4-1.5-4.1-1.9c-0.7-0.4-1.5-0.8-2.1-1.3
		c-3.1-2.2-4.6-5.1-4.6-8.7c0-1.9,0.4-3.6,1.1-5.1c0.8-1.6,1.8-2.8,3.2-3.8C119.2,264.6,121.6,263.9,124.4,263.7z M123.1,295.6v2.8
		c-1.3,0-2.8-0.4-4.4-1.1c-0.6-0.3-1-0.5-1.2-0.5c-0.2-0.1-0.4-0.1-0.7-0.1c-0.3,0-0.6,0.1-0.7,0.2c-0.2,0.1-0.4,0.4-0.8,0.8
		c-0.3,0.4-0.6,0.5-1,0.5c-0.9,0-1.4-0.7-1.4-2.1v-8.9c0-0.5,0.1-0.8,0.4-1.2c0.3-0.3,0.6-0.5,1-0.5c0.4,0,0.6,0.1,0.8,0.3
		c0.2,0.2,0.4,0.6,0.5,1.2c0.4,1.4,0.9,2.7,1.6,3.9s1.5,2.3,2.5,3.1C120.8,294.8,121.9,295.3,123.1,295.6z M126.3,266.5v-2.7
		c1,0.1,1.8,0.2,2.5,0.4c0.7,0.2,1.7,0.6,3.1,1.1c0.3,0.1,0.6,0.2,0.8,0.2c0.3,0,0.5-0.1,0.7-0.3l0.5-0.7c0.3-0.4,0.6-0.5,1-0.5
		c0.4,0,0.8,0.2,1,0.5c0.2,0.3,0.3,0.8,0.3,1.5v8.1c0,0.5-0.1,0.9-0.4,1.2c-0.3,0.3-0.6,0.5-1,0.5c-0.3,0-0.6-0.1-0.9-0.3
		c-0.1-0.1-0.3-0.3-0.4-0.5c-0.1-0.2-0.2-0.5-0.3-0.9c-0.2-0.8-0.5-1.6-0.9-2.5c-0.4-0.8-1-1.6-1.5-2.3
		C129.6,267.8,128.1,267,126.3,266.5z"/>
	<path class="st1" d="M143.2,288v-19.1c0-0.6-0.1-1-0.3-1.2c-0.1-0.1-0.2-0.2-0.3-0.3c-0.1,0-0.4-0.1-0.9-0.3c-0.7-0.2-1-0.6-1-1.3
		c0-0.4,0.2-0.7,0.5-1c0.3-0.2,0.8-0.3,1.4-0.3h0.6h10.9h0.6l0.9,0.1c0.3,0.1,0.5,0.2,0.7,0.4c0.2,0.2,0.3,0.5,0.3,0.8
		c0,0.7-0.3,1.1-1,1.3c-0.5,0.2-0.9,0.3-0.9,0.3c-0.1,0-0.2,0.1-0.3,0.3c-0.2,0.3-0.3,0.7-0.3,1.2v20.5c0,1.4,0,2.3,0.1,2.9
		c0.1,0.5,0.2,1,0.5,1.5c0.2,0.4,0.4,0.7,0.7,0.9c0.3,0.2,0.8,0.4,1.5,0.6v3.2h-0.5c-2.1,0-3.9-0.2-5.3-0.6c-1.6-0.4-3.1-1.1-4.3-2
		c-1.2-0.9-2.1-1.8-2.6-2.9C143.5,291.8,143.2,290.1,143.2,288z M159.1,298.4v-3.2c1.6-0.2,3-0.9,4.1-2c1.2-1.3,1.9-3.1,1.9-5.5
		v-15.9c0-2.2-0.9-3.8-2.6-4.7c-0.5-0.3-0.8-0.5-1-0.7c-0.2-0.2-0.2-0.5-0.2-0.8c0-0.4,0.2-0.7,0.5-0.9c0.3-0.2,0.8-0.3,1.5-0.3h6
		c0.5,0,0.8,0,1,0c0.2,0,0.3,0.1,0.5,0.2c0.4,0.2,0.6,0.6,0.6,1c0,0.4-0.1,0.7-0.4,0.9c-0.1,0.1-0.4,0.3-1,0.7
		c-0.7,0.4-1.3,1-1.7,1.8c-0.4,0.8-0.6,1.7-0.6,2.7v15.9c0,2.7-0.6,5-1.8,6.7c-0.9,1.3-2.1,2.3-3.8,3.1
		C161.2,297.9,160.2,298.2,159.1,298.4z"/>
	<path class="st1" d="M188.3,264.4v28.7c0,0.6,0.1,1.1,0.4,1.4c0.1,0.2,0.3,0.3,0.4,0.3c0.1,0,0.5,0.1,1.1,0.3
		c0.8,0.2,1.2,0.6,1.2,1.3c0,0.4-0.2,0.8-0.6,1c-0.3,0.2-0.8,0.3-1.5,0.3h-0.8h-10.9h-0.6c-0.6,0-1-0.1-1.4-0.3
		c-0.3-0.2-0.5-0.5-0.5-0.9c0-0.7,0.3-1.1,1-1.3c0.5-0.2,0.9-0.3,0.9-0.3c0.1,0,0.2-0.1,0.3-0.3c0.2-0.3,0.3-0.7,0.3-1.2v-24.4
		c0-0.6-0.1-1-0.3-1.2c-0.1-0.1-0.2-0.2-0.3-0.3c-0.1,0-0.4-0.1-0.9-0.3c-0.7-0.2-1-0.7-1-1.3c0-0.4,0.2-0.7,0.5-0.9
		c0.3-0.2,0.8-0.3,1.4-0.3h0.6H188.3z M195.8,281.4c1.5,0.2,2.6,0.5,3.5,0.8c0.8,0.3,1.5,0.7,2.2,1.1c0.7,0.5,1.2,1.1,1.6,1.8
		c0.4,0.7,0.5,1.4,0.5,2.2v5.1c0,0.5,0.2,0.8,0.5,0.8c0.1,0,0.2,0,0.3-0.1c0.1-0.1,0.2-0.2,0.4-0.4c0.4-0.6,0.8-0.8,1.2-0.8
		c0.3,0,0.6,0.1,0.8,0.4c0.3,0.3,0.4,0.6,0.4,0.9c0,0.5-0.2,1.1-0.7,1.8c-0.5,0.7-1.1,1.4-1.8,1.9c-0.7,0.5-1.4,0.9-2.2,1.2
		c-0.8,0.2-1.7,0.4-2.8,0.4c-2.1,0-3.8-0.6-5-1.8c-1.2-1.2-1.8-2.9-1.8-5.1v-4.1c0-0.9,0-1.4,0-1.6c-0.1-0.7-0.3-1.2-0.7-1.7
		c-0.5-0.6-1.1-0.9-2-1v-2.6c0.9-0.1,1.5-0.4,1.9-0.7c0.3-0.3,0.5-0.6,0.7-1c0.1-0.4,0.2-0.9,0.2-1.7v-6.5c0-1-0.2-1.8-0.6-2.3
		c-0.4-0.5-1.1-0.9-2.2-1.2v-2.7h0.6c1.8,0,3.3,0.1,4.6,0.2c1.9,0.2,3.6,0.8,5.1,1.9c2.1,1.5,3.2,3.7,3.2,6.5c0,2.3-0.7,4.2-2.1,5.6
		c-0.6,0.6-1.3,1.1-2.1,1.5S197.5,280.9,195.8,281.4z"/>
	<path class="st1" d="M223.3,264.4v33.3h-10.9h-0.6c-0.6,0-1-0.1-1.4-0.3c-0.3-0.2-0.5-0.5-0.5-0.9c0-0.7,0.3-1.1,1-1.3
		c0.5-0.2,0.9-0.3,0.9-0.3c0.1,0,0.2-0.1,0.3-0.3c0.2-0.3,0.3-0.7,0.3-1.2v-24.4c0-0.6-0.1-1-0.3-1.2c-0.1-0.1-0.2-0.2-0.3-0.3
		c-0.1,0-0.4-0.1-0.9-0.3c-0.7-0.2-1-0.7-1-1.3c0-0.4,0.2-0.7,0.5-0.9c0.3-0.2,0.8-0.3,1.4-0.3h0.6H223.3z M225.3,282.2v-2.8
		c0.9-0.5,1.6-1,2.1-1.5c0.5-0.5,0.8-1.3,1-2.1c0.1-0.6,0.3-1,0.5-1.3c0.2-0.2,0.5-0.4,0.9-0.4c0.5,0,0.9,0.2,1.1,0.6
		c0.1,0.2,0.2,0.7,0.2,1.4v9.3c0,0.8-0.1,1.3-0.3,1.6s-0.5,0.4-0.9,0.4c-0.4,0-0.7-0.1-0.9-0.3c-0.2-0.2-0.4-0.6-0.5-1.1
		c-0.3-1.1-0.7-2-1.2-2.6C226.8,282.8,226.1,282.4,225.3,282.2z M225.5,264.4h9.8v8.6c0,0.5-0.1,0.9-0.3,1.1
		c-0.2,0.2-0.5,0.3-0.9,0.3c-0.4,0-0.6-0.1-0.8-0.2c-0.2-0.1-0.3-0.4-0.5-0.9c-0.6-1.9-1.5-3.3-2.7-4.3c-1.2-1-2.7-1.6-4.7-1.8
		V264.4z M225.5,297.7v-2.6c1.1-0.2,1.9-0.4,2.6-0.7c0.7-0.3,1.4-0.7,2.1-1.3c0.7-0.6,1.3-1.2,1.7-1.9c0.4-0.6,0.8-1.5,1.2-2.6
		c0.2-0.5,0.4-0.9,0.6-1.1c0.2-0.2,0.5-0.3,0.8-0.3c0.5,0,0.8,0.1,1,0.4c0.2,0.3,0.3,0.7,0.3,1.4v8.6H225.5z"/>
	<path class="st1" d="M252.1,266.4c-0.8,0.3-1.4,0.7-1.8,1.2c-0.3,0.5-0.5,1.2-0.5,2.2v21.8c0,1.4,0.2,2.4,0.6,3
		c0.3,0.5,0.9,0.8,1.7,1v2.7c-3.6-0.3-6.6-1.7-9.1-4.1c-3.2-3.2-4.8-7.6-4.8-13.2c0-2.8,0.4-5.4,1.3-7.7c0.8-2.3,2.1-4.2,3.7-5.8
		c1.3-1.2,2.6-2.1,4.1-2.8c1.4-0.6,3.1-1,4.8-1.1V266.4z M254.1,266.4v-2.6c1.8,0.1,3.4,0.4,4.8,1.1c1.5,0.6,2.8,1.6,4.1,2.8
		c3.3,3.2,5,7.7,5,13.5c0,5.6-1.6,10.1-4.8,13.2c-2.4,2.4-5.5,3.8-9.1,4.1v-2.7c0.4-0.1,0.8-0.2,1-0.4c0.2-0.2,0.5-0.4,0.6-0.7
		c0.4-0.7,0.7-1.7,0.7-3v-21.8c0-0.9-0.1-1.5-0.4-2.1c-0.2-0.3-0.4-0.6-0.7-0.8S254.6,266.5,254.1,266.4z"/>
	<path class="st1" d="M274.6,273l2.6,4.3v13.1c0,1.1,0.2,2.1,0.6,2.8c0.4,0.7,1,1.3,1.8,1.8l0.7,0.4c0.4,0.2,0.6,0.6,0.6,1.1
		c0,0.4-0.2,0.7-0.5,0.9c-0.3,0.2-0.8,0.3-1.6,0.3h-5.6c-1.5,0-2.2-0.4-2.2-1.3c0-0.3,0.1-0.5,0.2-0.7c0.2-0.2,0.5-0.4,1-0.7
		c1.6-0.9,2.3-2.4,2.3-4.7V273z M284.8,264.4l13,22.6v10.8h-6.7l-16.6-28.6c-0.4-0.6-0.7-1-0.9-1.3c-0.2-0.2-0.5-0.4-0.9-0.5
		l-0.9-0.3c-0.2-0.1-0.4-0.2-0.6-0.4c-0.1-0.2-0.2-0.4-0.2-0.7c0-0.3,0.1-0.5,0.2-0.8c0.1-0.2,0.3-0.4,0.6-0.5
		c0.3-0.1,1-0.2,2.2-0.2H284.8z M297.8,283l-2.6-4.4v-6.8c0-1.4-0.2-2.4-0.6-3.1c-0.4-0.7-1.1-1.3-2.1-1.9c-0.3-0.2-0.6-0.3-0.7-0.5
		c-0.1-0.2-0.2-0.4-0.2-0.7c0-0.4,0.1-0.8,0.4-1c0.3-0.2,0.7-0.3,1.4-0.3h6.1c0.8,0,1.4,0.1,1.6,0.4c0.3,0.3,0.4,0.6,0.4,0.9
		c0,0.3-0.1,0.6-0.2,0.8c-0.2,0.2-0.5,0.4-1.1,0.7c-0.9,0.4-1.5,1.1-2,2c-0.3,0.7-0.5,1.6-0.5,2.7V283z"/>
	<path class="st1" d="M312.7,270.6l1.2,5.1l-4.3,15.8c-0.1,0.5-0.2,0.9-0.2,1.3c0,1,0.5,1.8,1.4,2.2l0.9,0.4
		c0.5,0.2,0.8,0.7,0.8,1.2c0,0.8-0.6,1.2-1.8,1.2h-6.2c-0.6,0-1.1-0.1-1.4-0.4c-0.4-0.3-0.5-0.6-0.5-1c0-0.5,0.4-0.9,1.1-1.2
		c0.7-0.3,1.2-0.6,1.5-0.8c0.3-0.2,0.6-0.6,0.9-1c0.5-0.7,0.8-1.6,1.1-2.7L312.7,270.6z M314.4,264.4h9.8l6.8,28.7
		c0.1,0.5,0.3,1,0.4,1.3c0.1,0.3,0.5,0.6,1,0.8c0.4,0.2,0.7,0.4,0.9,0.5c0.2,0.2,0.2,0.4,0.2,0.7c0,0.8-0.6,1.3-1.9,1.3h-12.2
		c-0.5,0-0.9-0.1-1.2-0.4c-0.3-0.2-0.4-0.5-0.4-0.9c0-0.3,0.1-0.6,0.2-0.7c0.1-0.2,0.4-0.4,0.9-0.6c0.3-0.2,0.6-0.3,0.7-0.5
		c0.1-0.2,0.2-0.4,0.2-0.7c0-0.3,0-0.5-0.1-0.7l-0.8-3.5h-6.8l0.7-2.9h5.5l-4.5-19.8L314.4,264.4z"/>
	<path class="st1" d="M348.9,297.7H338h-0.6c-0.6,0-1-0.1-1.4-0.3c-0.3-0.2-0.5-0.5-0.5-0.9c0-0.7,0.3-1.1,1-1.3
		c0.5-0.2,0.9-0.3,0.9-0.3c0.1,0,0.2-0.1,0.3-0.3c0.2-0.3,0.3-0.7,0.3-1.2v-24.4c0-0.6-0.1-1-0.3-1.2c-0.1-0.1-0.2-0.2-0.3-0.3
		c-0.1,0-0.4-0.1-0.9-0.3c-0.7-0.2-1-0.7-1-1.3c0-0.4,0.2-0.7,0.5-0.9c0.3-0.2,0.8-0.3,1.4-0.3h0.6h10.9h0.6c0.6,0,1,0.1,1.4,0.3
		c0.3,0.2,0.5,0.5,0.5,0.9c0,0.7-0.3,1.1-1,1.3c-0.5,0.2-0.9,0.3-0.9,0.3c-0.1,0-0.2,0.1-0.3,0.3c-0.2,0.3-0.3,0.7-0.3,1.2v24.4
		c0,0.6,0.1,1,0.3,1.2c0.1,0.1,0.2,0.2,0.3,0.3c0.1,0,0.4,0.2,0.9,0.3c0.7,0.2,1,0.7,1,1.3c0,0.4-0.2,0.7-0.5,0.9
		c-0.3,0.2-0.8,0.3-1.4,0.3H348.9z"/>
	<path class="st1" d="M368.7,264.4v28.7c0,0.6,0.1,1.1,0.4,1.4c0.1,0.2,0.3,0.3,0.4,0.3c0.1,0,0.5,0.1,1.1,0.3
		c0.8,0.2,1.2,0.6,1.2,1.3c0,0.4-0.2,0.8-0.6,1c-0.3,0.2-0.8,0.3-1.5,0.3h-0.8h-10.9h-0.6c-0.6,0-1-0.1-1.4-0.3
		c-0.3-0.2-0.5-0.5-0.5-0.9c0-0.7,0.3-1.1,1-1.3c0.5-0.2,0.9-0.3,0.9-0.3c0.1,0,0.2-0.1,0.3-0.3c0.2-0.3,0.3-0.7,0.3-1.2v-24.4
		c0-0.6-0.1-1-0.3-1.2c-0.1-0.1-0.2-0.2-0.3-0.3c-0.1,0-0.4-0.1-0.9-0.3c-0.7-0.2-1-0.7-1-1.3c0-0.4,0.2-0.7,0.5-0.9
		c0.3-0.2,0.8-0.3,1.4-0.3h0.6H368.7z M376.2,281.4c1.5,0.2,2.6,0.5,3.5,0.8c0.8,0.3,1.5,0.7,2.2,1.1c0.7,0.5,1.2,1.1,1.6,1.8
		c0.4,0.7,0.5,1.4,0.5,2.2v5.1c0,0.5,0.2,0.8,0.5,0.8c0.1,0,0.2,0,0.3-0.1c0.1-0.1,0.2-0.2,0.4-0.4c0.4-0.6,0.8-0.8,1.2-0.8
		c0.3,0,0.6,0.1,0.8,0.4c0.3,0.3,0.4,0.6,0.4,0.9c0,0.5-0.2,1.1-0.7,1.8c-0.5,0.7-1.1,1.4-1.8,1.9c-0.7,0.5-1.4,0.9-2.2,1.2
		c-0.8,0.2-1.7,0.4-2.8,0.4c-2.1,0-3.8-0.6-5-1.8c-1.2-1.2-1.8-2.9-1.8-5.1v-4.1c0-0.9,0-1.4,0-1.6c-0.1-0.7-0.3-1.2-0.7-1.7
		c-0.5-0.6-1.1-0.9-2-1v-2.6c0.9-0.1,1.5-0.4,1.9-0.7c0.3-0.3,0.5-0.6,0.7-1c0.1-0.4,0.2-0.9,0.2-1.7v-6.5c0-1-0.2-1.8-0.6-2.3
		c-0.4-0.5-1.1-0.9-2.2-1.2v-2.7h0.6c1.8,0,3.3,0.1,4.6,0.2c1.9,0.2,3.6,0.8,5.1,1.9c2.1,1.5,3.2,3.7,3.2,6.5c0,2.3-0.7,4.2-2.1,5.6
		c-0.6,0.6-1.3,1.1-2.1,1.5S377.8,280.9,376.2,281.4z"/>
</g>
</svg>
