<?xml version="1.0" encoding="utf-8"?>
<!-- Generator: Adobe Illustrator 21.0.0, SVG Export Plug-In . SVG Version: 6.00 Build 0)  -->
<svg version="1.1" id="Logo" xmlns="http://www.w3.org/2000/svg" xmlns:xlink="http://www.w3.org/1999/xlink" x="0px" y="0px"
	 viewBox="0 0 200 200" style="enable-background:new 0 0 200 200;" xml:space="preserve">
<style type="text/css">
	.st0{display:none;}
	.st1{fill:none;stroke:#FFFFFF;stroke-width:2;}
	.st2{fill:none;stroke:#FFFFFF;stroke-width:5;}
</style>
<rect id="Background_x5F_Rect" class="st0" width="200" height="200"/>
<path id="Compass_x5F_Path" class="st1" d="M120.6,130.1l4.8-2.6l-9.9-20.5c0,0,3.1-3.3,4.1-4.7c0.3-0.5,2.8-5.1,2.8-5.1l-4.1-2.3
	c0,0-0.6,1.3-0.9,1.8c-0.8,1.4-4.2,5.3-4.5,5.2l-3.8-7.8c0,0,3.7-5.3,1.8-10.5s-7-6.6-7-6.6l0-11.2c0,0-1-1.4-1.4-1.8
	c-0.5-0.5-1.7-1-2.4-1c-0.7,0-2.2,0.6-2.8,1c-0.5,0.4-1.4,1.8-1.4,1.8L96,77c0,0-5.1,1.4-7,6.6s1.8,10.5,1.8,10.5l-3.8,7.8
	c-0.3,0.1-3.7-3.8-4.5-5.2c-0.3-0.6-0.9-1.8-0.9-1.8l-4.1,2.3c0,0,2.5,4.6,2.8,5.1c1,1.4,4.1,4.7,4.1,4.7l-9.9,20.5l4.8,2.6
	c0,0-1.5,3-1.8,4c-0.2,0.6-0.2,2.9-0.2,2.9l1.6-0.5l9.8-20.3l2.4-5.9c0,0,1,0.6,1.6,0.8c2.5,1,7.4,1,7.4,1s4.6,0,7-1.1
	c0.6-0.3,1.6-0.8,1.6-0.8l2.4,5.9l9.8,20.3l1.6,0.5c0,0,0-2.3-0.2-2.9C122.1,133.1,120.6,130.1,120.6,130.1z M104.6,106.5
	c-1.2,0.3-2.8,0.5-2.8,0.5l0-2.2c0,0,0.1-1.5-0.4-2.4c-0.4-0.7-1.3-0.7-1.3-0.7s-0.8,0.1-1.3,0.8c-0.5,0.9-0.4,2.4-0.4,2.4l0,2.2
	c0,0-1.6-0.2-2.8-0.5c-0.9-0.2-2.1-0.7-2.1-0.7l1.9-3.9l1.5-3.1v-6c0,0-1.3-0.8-2.3-2.6c-0.5-1.1-0.9-2.2-0.8-3.4
	c0.5-5.2,6.2-5.7,6.2-5.7s5.7,0.5,6.1,5.7c0.1,1.2-0.2,2.4-0.8,3.4c-0.9,1.8-2.3,2.6-2.3,2.6v6l1.5,3.1l1.9,3.9
	C106.7,105.8,105.5,106.3,104.6,106.5z"/>
<path class="st2" d="M97.7,167.8l-55.4-32.3c-1.5-0.9-2.5-2.5-2.5-4.3l0.1-63c0-1.8,1-3.4,2.5-4.3l55.1-31.6c1.5-0.9,3.4-0.9,5,0
	l54.7,31.6c1.5,0.9,2.5,2.5,2.5,4.3l0.3,63.6c0,1.8-0.9,3.5-2.5,4.4l-54.9,31.7C101.2,168.7,99.3,168.7,97.7,167.8z"/>
</svg>
